<svg id="visual" viewBox="0 0 900 600" width="900" height="600" xmlns="http://www.w3.org/2000/svg" xmlns:xlink="http://www.w3.org/1999/xlink" version="1.1"><rect x="0" y="0" width="900" height="600" fill="#001220"></rect><path d="M0 371L21.5 373.5C43 376 86 381 128.8 393.8C171.7 406.7 214.3 427.3 257.2 436C300 444.7 343 441.3 385.8 438.8C428.7 436.3 471.3 434.7 514.2 427.8C557 421 600 409 642.8 404.2C685.7 399.3 728.3 401.7 771.2 400C814 398.3 857 392.7 878.5 389.8L900 387L900 601L878.5 601C857 601 814 601 771.2 601C728.3 601 685.7 601 642.8 601C600 601 557 601 514.2 601C471.3 601 428.7 601 385.8 601C343 601 300 601 257.2 601C214.3 601 171.7 601 128.8 601C86 601 43 601 21.5 601L0 601Z" fill="#c62368"></path><path d="M0 467L21.5 456.8C43 446.7 86 426.3 128.8 422.3C171.7 418.3 214.3 430.7 257.2 441.2C300 451.7 343 460.3 385.8 461.5C428.7 462.7 471.3 456.3 514.2 444.2C557 432 600 414 642.8 417.5C685.7 421 728.3 446 771.2 445.7C814 445.3 857 419.7 878.5 406.8L900 394L900 601L878.5 601C857 601 814 601 771.2 601C728.3 601 685.7 601 642.8 601C600 601 557 601 514.2 601C471.3 601 428.7 601 385.8 601C343 601 300 601 257.2 601C214.3 601 171.7 601 128.8 601C86 601 43 601 21.5 601L0 601Z" fill="#ea1369"></path><path d="M0 464L21.5 466.5C43 469 86 474 128.8 480.3C171.7 486.7 214.3 494.3 257.2 494.8C300 495.3 343 488.7 385.8 479.3C428.7 470 471.3 458 514.2 460.3C557 462.7 600 479.3 642.8 483.2C685.7 487 728.3 478 771.2 468.8C814 459.7 857 450.3 878.5 445.7L900 441L900 601L878.5 601C857 601 814 601 771.2 601C728.3 601 685.7 601 642.8 601C600 601 557 601 514.2 601C471.3 601 428.7 601 385.8 601C343 601 300 601 257.2 601C214.3 601 171.7 601 128.8 601C86 601 43 601 21.5 601L0 601Z" fill="#ff0066"></path><path d="M0 542L21.5 537.7C43 533.3 86 524.7 128.8 517.8C171.7 511 214.3 506 257.2 506.8C300 507.7 343 514.3 385.8 518C428.7 521.7 471.3 522.3 514.2 524.3C557 526.3 600 529.7 642.8 527C685.7 524.3 728.3 515.7 771.2 509.2C814 502.7 857 498.3 878.5 496.2L900 494L900 601L878.5 601C857 601 814 601 771.2 601C728.3 601 685.7 601 642.8 601C600 601 557 601 514.2 601C471.3 601 428.7 601 385.8 601C343 601 300 601 257.2 601C214.3 601 171.7 601 128.8 601C86 601 43 601 21.5 601L0 601Z" fill="#ea1369"></path><path d="M0 546L21.5 545.5C43 545 86 544 128.8 542.2C171.7 540.3 214.3 537.7 257.2 539.7C300 541.7 343 548.3 385.8 548.2C428.7 548 471.3 541 514.2 540C557 539 600 544 642.8 545.3C685.7 546.7 728.3 544.3 771.2 540.5C814 536.7 857 531.3 878.5 528.7L900 526L900 601L878.5 601C857 601 814 601 771.2 601C728.3 601 685.7 601 642.8 601C600 601 557 601 514.2 601C471.3 601 428.7 601 385.8 601C343 601 300 601 257.2 601C214.3 601 171.7 601 128.8 601C86 601 43 601 21.5 601L0 601Z" fill="#c62368"></path></svg>