<svg id="visual" viewBox="0 0 900 600" width="900" height="600" xmlns="http://www.w3.org/2000/svg" xmlns:xlink="http://www.w3.org/1999/xlink" version="1.1"><rect x="0" y="0" width="900" height="600" fill="#1a1a1a"></rect><defs><linearGradient id="grad1_0" x1="33.3%" y1="0%" x2="100%" y2="100%"><stop offset="20%" stop-color="#fbae3c" stop-opacity="1"></stop><stop offset="80%" stop-color="#fbae3c" stop-opacity="1"></stop></linearGradient></defs><defs><linearGradient id="grad1_1" x1="33.3%" y1="0%" x2="100%" y2="100%"><stop offset="20%" stop-color="#fbae3c" stop-opacity="1"></stop><stop offset="80%" stop-color="#c98d37" stop-opacity="1"></stop></linearGradient></defs><defs><linearGradient id="grad1_2" x1="33.3%" y1="0%" x2="100%" y2="100%"><stop offset="20%" stop-color="#9a6e31" stop-opacity="1"></stop><stop offset="80%" stop-color="#c98d37" stop-opacity="1"></stop></linearGradient></defs><defs><linearGradient id="grad1_3" x1="33.3%" y1="0%" x2="100%" y2="100%"><stop offset="20%" stop-color="#9a6e31" stop-opacity="1"></stop><stop offset="80%" stop-color="#6d502b" stop-opacity="1"></stop></linearGradient></defs><defs><linearGradient id="grad1_4" x1="33.3%" y1="0%" x2="100%" y2="100%"><stop offset="20%" stop-color="#423423" stop-opacity="1"></stop><stop offset="80%" stop-color="#6d502b" stop-opacity="1"></stop></linearGradient></defs><defs><linearGradient id="grad1_5" x1="33.3%" y1="0%" x2="100%" y2="100%"><stop offset="20%" stop-color="#423423" stop-opacity="1"></stop><stop offset="80%" stop-color="#1a1a1a" stop-opacity="1"></stop></linearGradient></defs><defs><linearGradient id="grad2_0" x1="0%" y1="0%" x2="66.7%" y2="100%"><stop offset="20%" stop-color="#fbae3c" stop-opacity="1"></stop><stop offset="80%" stop-color="#fbae3c" stop-opacity="1"></stop></linearGradient></defs><defs><linearGradient id="grad2_1" x1="0%" y1="0%" x2="66.7%" y2="100%"><stop offset="20%" stop-color="#c98d37" stop-opacity="1"></stop><stop offset="80%" stop-color="#fbae3c" stop-opacity="1"></stop></linearGradient></defs><defs><linearGradient id="grad2_2" x1="0%" y1="0%" x2="66.7%" y2="100%"><stop offset="20%" stop-color="#c98d37" stop-opacity="1"></stop><stop offset="80%" stop-color="#9a6e31" stop-opacity="1"></stop></linearGradient></defs><defs><linearGradient id="grad2_3" x1="0%" y1="0%" x2="66.7%" y2="100%"><stop offset="20%" stop-color="#6d502b" stop-opacity="1"></stop><stop offset="80%" stop-color="#9a6e31" stop-opacity="1"></stop></linearGradient></defs><defs><linearGradient id="grad2_4" x1="0%" y1="0%" x2="66.7%" y2="100%"><stop offset="20%" stop-color="#6d502b" stop-opacity="1"></stop><stop offset="80%" stop-color="#423423" stop-opacity="1"></stop></linearGradient></defs><defs><linearGradient id="grad2_5" x1="0%" y1="0%" x2="66.7%" y2="100%"><stop offset="20%" stop-color="#1a1a1a" stop-opacity="1"></stop><stop offset="80%" stop-color="#423423" stop-opacity="1"></stop></linearGradient></defs><g transform="translate(900, 0)"><path d="M0 486.7C-93.5 478.9 -187 471 -243.4 421.5C-299.7 372.1 -319 281.2 -353.3 204C-387.7 126.8 -437.2 63.4 -486.7 0L0 0Z" fill="#2e271f"></path><path d="M0 405.6C-77.9 399 -155.8 392.5 -202.8 351.3C-249.8 310.1 -265.8 234.3 -294.4 170C-323.1 105.7 -364.4 52.8 -405.6 0L0 0Z" fill="#574227"></path><path d="M0 324.5C-62.3 319.2 -124.7 314 -162.2 281C-199.8 248.1 -212.6 187.5 -235.6 136C-258.5 84.5 -291.5 42.3 -324.5 0L0 0Z" fill="#835f2e"></path><path d="M0 243.4C-46.8 239.4 -93.5 235.5 -121.7 210.8C-149.9 186.1 -159.5 140.6 -176.7 102C-193.9 63.4 -218.6 31.7 -243.4 0L0 0Z" fill="#b17d34"></path><path d="M0 162.2C-31.2 159.6 -62.3 157 -81.1 140.5C-99.9 124 -106.3 93.7 -117.8 68C-129.2 42.3 -145.7 21.1 -162.2 0L0 0Z" fill="#e29d3a"></path><path d="M0 81.1C-15.6 79.8 -31.2 78.5 -40.6 70.3C-50 62 -53.2 46.9 -58.9 34C-64.6 21.1 -72.9 10.6 -81.1 0L0 0Z" fill="#fbae3c"></path></g><g transform="translate(0, 600)"><path d="M0 -486.7C63.1 -436.8 126.3 -386.8 203.5 -352.5C280.7 -318.2 372 -299.5 421.5 -243.4C471.1 -187.2 478.9 -93.6 486.7 0L0 0Z" fill="#2e271f"></path><path d="M0 -405.6C52.6 -364 105.2 -322.3 169.6 -293.7C233.9 -265.1 310 -249.6 351.3 -202.8C392.6 -156 399.1 -78 405.6 0L0 0Z" fill="#574227"></path><path d="M0 -324.5C42.1 -291.2 84.2 -257.9 135.7 -235C187.1 -212.1 248 -199.7 281 -162.2C314.1 -124.8 319.3 -62.4 324.5 0L0 0Z" fill="#835f2e"></path><path d="M0 -243.4C31.6 -218.4 63.1 -193.4 101.7 -176.2C140.4 -159.1 186 -149.8 210.8 -121.7C235.5 -93.6 239.5 -46.8 243.4 0L0 0Z" fill="#b17d34"></path><path d="M0 -162.2C21 -145.6 42.1 -128.9 67.8 -117.5C93.6 -106.1 124 -99.8 140.5 -81.1C157 -62.4 159.6 -31.2 162.2 0L0 0Z" fill="#e29d3a"></path><path d="M0 -81.1C10.5 -72.8 21 -64.5 33.9 -58.7C46.8 -53 62 -49.9 70.3 -40.6C78.5 -31.2 79.8 -15.6 81.1 0L0 0Z" fill="#fbae3c"></path></g></svg>